<svg xmlns="http://www.w3.org/2000/svg" width="35.907" height="36.656" viewBox="0 0 35.907 36.656">
  <g id="icon_kids-color" transform="translate(1.18 1.389)">
    <path id="Path_70564" data-name="Path 70564" d="M466.7,212.126a8.9,8.9,0,0,0,14.2,0" transform="translate(-455.074 -187.465)" fill="none" stroke="#1d1d1d" stroke-linecap="round" stroke-linejoin="round" stroke-width="2"/>
    <path id="Path_70565" data-name="Path 70565" d="M473.335,190.519a15,15,0,0,0-14.98,14.648c.188,0,.375.014.564.014a21.358,21.358,0,0,0,17.268-8.775,12.8,12.8,0,0,0,12.13,8.793A15,15,0,0,0,473.335,190.519Z" transform="translate(-454.606 -186.274)" fill="#d9ccc3"/>
    <ellipse id="Ellipse_1812" data-name="Ellipse 1812" cx="14.998" cy="15.011" rx="14.998" ry="15.011" transform="translate(3.731 4.245)" fill="none" stroke="#1d1d1d" stroke-linecap="round" stroke-linejoin="round" stroke-width="2"/>
    <path id="Path_70566" data-name="Path 70566" d="M454.384,205.089a21.409,21.409,0,0,0,21.58-8.339,12.8,12.8,0,0,0,12.147,8.794" transform="translate(-454.384 -186.617)" fill="none" stroke="#1d1d1d" stroke-linecap="round" stroke-linejoin="round" stroke-width="2"/>
    <path id="Path_70567" data-name="Path 70567" d="M474.653,186.026a5.3,5.3,0,0,1,2.336,4.4" transform="translate(-455.519 -186.026)" fill="none" stroke="#1d1d1d" stroke-linecap="round" stroke-linejoin="round" stroke-width="2"/>
    <path id="Path_70568" data-name="Path 70568" d="M480.759,189.263a4.065,4.065,0,0,0-3.558,1.4" transform="translate(-455.661 -186.203)" fill="none" stroke="#1d1d1d" stroke-linecap="round" stroke-linejoin="round" stroke-width="2"/>
    <ellipse id="Ellipse_1813" data-name="Ellipse 1813" cx="2.242" cy="2.244" rx="2.242" ry="2.244" transform="translate(12.108 16.682)" fill="none" stroke="#1d1d1d" stroke-linecap="round" stroke-linejoin="round" stroke-width="2"/>
    <ellipse id="Ellipse_1814" data-name="Ellipse 1814" cx="2.242" cy="2.244" rx="2.242" ry="2.244" transform="translate(21.344 16.682)" fill="none" stroke="#1d1d1d" stroke-linecap="round" stroke-linejoin="round" stroke-width="2"/>
  </g>
</svg>
