<svg id="icon_current-location" xmlns="http://www.w3.org/2000/svg" width="24" height="24" viewBox="0 0 24 24">
  <circle id="Ellipse_1806" data-name="Ellipse 1806" cx="12" cy="12" r="12" fill="#102558"/>
  <g id="logo_aid-humanity-icon" transform="translate(5.484 3.273)">
    <path id="Path_70532" data-name="Path 70532" d="M68.11,4.827A2.351,2.351,0,0,1,67,4.547a2.392,2.392,0,0,1-1.165-1.422,2.423,2.423,0,0,1,.171-1.839A2.376,2.376,0,0,1,67.411.108a2.347,2.347,0,0,1,1.818.173,2.43,2.43,0,0,1,.994,3.261h0A2.385,2.385,0,0,1,68.11,4.827Zm.006-3.491a1.065,1.065,0,0,0-.943.574,1.082,1.082,0,0,0-.076.821,1.062,1.062,0,0,0,1.96.186h0a1.085,1.085,0,0,0-.444-1.456A1.049,1.049,0,0,0,68.116,1.336ZM69.64,3.23h0Z" transform="translate(-61.638 0)" fill="#ffc100"/>
    <path id="Union_1" data-name="Union 1" d="M6,11.57,1.125,6.635a3.92,3.92,0,0,1,0-5.5,3.817,3.817,0,0,1,5.352-.082,3.816,3.816,0,0,1,5.351.082,3.918,3.918,0,0,1,0,5.5.653.653,0,0,1-.933,0,.672.672,0,0,1,0-.944,2.574,2.574,0,0,0,0-3.609,2.507,2.507,0,0,0-3.569,0l-.383.387h0L4.583,4.857a.655.655,0,0,1-.934,0,.675.675,0,0,1,0-.945L5.539,2a2.5,2.5,0,0,0-3.479.081,2.572,2.572,0,0,0,0,3.609l4.878,4.935a.673.673,0,0,1,0,.945.655.655,0,0,1-.934,0ZM7.727,9.984,5.441,7.672a.673.673,0,0,1,0-.945.655.655,0,0,1,.934,0L8.661,9.04a.672.672,0,0,1,0,.944.655.655,0,0,1-.934,0ZM9.358,8.246l-2.2-2.224a.672.672,0,0,1,0-.944.655.655,0,0,1,.934,0l2.2,2.224a.672.672,0,0,1,0,.944.655.655,0,0,1-.933,0Z" transform="translate(0 5.321)" fill="#00ade9" stroke="rgba(0,0,0,0)" stroke-width="1"/>
  </g>
</svg>
