<svg xmlns="http://www.w3.org/2000/svg" width="100.688" height="100.688" viewBox="0 0 100.688 100.688">
  <g id="illustration_subscription-donation" transform="translate(0.75 0.75)">
    <path id="Path_70593" data-name="Path 70593" d="M353.276,89.863a49.637,49.637,0,0,1-60.135,62.924" transform="translate(-256.4 -55.281)" fill="#fff" stroke="#1a1e23" stroke-linecap="round" stroke-linejoin="round" stroke-width="1.5" stroke-dasharray="4"/>
    <path id="Path_70594" data-name="Path 70594" d="M261.487,126.779a49.619,49.619,0,0,1,63.811-67.6" transform="translate(-256.4 -55.281)" fill="#fff" stroke="#1a1e23" stroke-linecap="round" stroke-linejoin="round" stroke-width="1.5" stroke-dasharray="4"/>
    <g id="icon_calendar-alt" data-name="icon calendar-alt" transform="translate(-256.4 -55.281)">
      <path id="Rectangle_2845" data-name="Rectangle 2845" d="M317.947,123.367h-27.56a5.321,5.321,0,0,1-5.322-5.321V91.7a5.322,5.322,0,0,1,5.322-5.322h30.571A5.322,5.322,0,0,1,326.28,91.7v23.109" fill="#ccf2ff" stroke="#1a1e23" stroke-linecap="round" stroke-linejoin="round" stroke-width="1.5"/>
      <line id="Line_209" data-name="Line 209" y2="7.749" transform="translate(296.157 82.156)" fill="#fff" stroke="#1a1e23" stroke-linecap="round" stroke-linejoin="round" stroke-width="1.5"/>
      <line id="Line_210" data-name="Line 210" y2="7.749" transform="translate(315.355 82.156)" fill="#fff" stroke="#1a1e23" stroke-linecap="round" stroke-linejoin="round" stroke-width="1.5"/>
      <line id="Line_211" data-name="Line 211" x2="40.274" transform="translate(285.065 97.653)" fill="#fff" stroke="#1a1e23" stroke-linecap="round" stroke-linejoin="round" stroke-width="1.5"/>
      <rect id="Rectangle_2846" data-name="Rectangle 2846" width="5.826" height="5.826" transform="translate(291.959 104.16)" fill="#fff" stroke="#1a1e23" stroke-linecap="round" stroke-linejoin="round" stroke-width="1.5"/>
      <rect id="Rectangle_2847" data-name="Rectangle 2847" width="5.826" height="5.826" transform="translate(303.081 104.16)" fill="#fff" stroke="#1a1e23" stroke-linecap="round" stroke-linejoin="round" stroke-width="1.5"/>
      <rect id="Rectangle_2848" data-name="Rectangle 2848" width="5.826" height="5.826" transform="translate(314.2 104.16)" fill="#fff" stroke="#1a1e23" stroke-linecap="round" stroke-linejoin="round" stroke-width="1.5"/>
    </g>
    <g id="icon_check-circle" data-name="icon check-circle" transform="translate(-256.4 -55.281)">
      <circle id="Ellipse_2" data-name="Ellipse 2" cx="12.672" cy="12.672" r="12.672" transform="translate(330.245 58.657)" fill="#b4ffe8" stroke="#1d1d1d" stroke-linecap="round" stroke-width="1.5"/>
      <g id="icon-check">
        <path id="Path_263" data-name="Path 263" d="M346.718,69.521l-4.706,5.448-2.9-2.336" fill="#b4ffe8" stroke="#1d1d1d" stroke-linecap="round" stroke-linejoin="round" stroke-width="1.5"/>
      </g>
    </g>
    <circle id="Ellipse_2-2" data-name="Ellipse 2" cx="12.672" cy="12.672" r="12.672" transform="translate(6.861 73.844)" fill="#ffc101" stroke="#1d1d1d" stroke-linecap="round" stroke-width="1.5"/>
    <line id="Line_1511" data-name="Line 1511" x1="8.333" y2="8.528" transform="translate(61.547 59.558)" fill="none" stroke="#1a1e23" stroke-linecap="round" stroke-linejoin="round" stroke-width="1.5"/>
    <g id="Group_15391" data-name="Group 15391" transform="translate(-256.4 -55.281)">
      <path id="Path_38237" data-name="Path 38237" d="M337.627,137.632l5.572.042.085,5.615" fill="#fff" stroke="#1a1e23" stroke-linecap="round" stroke-linejoin="round" stroke-width="1.5"/>
      <line id="Line_1402" data-name="Line 1402" x2="5.667" y2="5.667" transform="translate(337.593 137.696)" fill="#fff" stroke="#1a1e23" stroke-linecap="round" stroke-linejoin="round" stroke-width="1.5"/>
    </g>
    <g id="Group_15392" data-name="Group 15392" transform="translate(-256.4 -55.281)">
      <path id="Path_38237-2" data-name="Path 38237" d="M276.381,69.986l-5.573-.042-.084-5.615" fill="#fff" stroke="#1a1e23" stroke-linecap="round" stroke-linejoin="round" stroke-width="1.5"/>
      <line id="Line_1402-2" data-name="Line 1402" x1="5.667" y1="5.667" transform="translate(270.748 64.255)" fill="#fff" stroke="#1a1e23" stroke-linecap="round" stroke-linejoin="round" stroke-width="1.5"/>
    </g>
    <path id="Path_70596" data-name="Path 70596" d="M279.489,139.111v-.133a3.112,3.112,0,0,0-3.112-3.112h0a2.7,2.7,0,0,0-2.7,2.725h0c-.084,4.353-.461,7.279-1.361,9.136h7.171" transform="translate(-256.4 -55.281)" fill="none" stroke="#1a1e23" stroke-linecap="round" stroke-linejoin="round" stroke-width="1.5"/>
    <line id="Line_1512" data-name="Line 1512" x2="5.208" transform="translate(15.283 86.824)" fill="#fff" stroke="#1a1e23" stroke-linecap="round" stroke-linejoin="round" stroke-width="1.5"/>
    <path id="Path_70597" data-name="Path 70597" d="M325.48,114.812l-7.76,7.76v-7.76" transform="translate(-256.481 -55.281)" fill="#8db8c7"/>
    <path id="Path_70595" data-name="Path 70595" d="M326.28,114.812h-8.56v8.555" transform="translate(-256.4 -55.281)" fill="none" stroke="#1a1e23" stroke-linecap="round" stroke-linejoin="round" stroke-width="1.5"/>
  </g>
</svg>
