<svg xmlns="http://www.w3.org/2000/svg" width="84.753" height="107.561" viewBox="0 0 84.753 107.561">
  <g id="illustration_project-backed-donation" transform="translate(0.5 0.75)">
    <rect id="Rectangle_6160" data-name="Rectangle 6160" width="70.006" height="43.303" rx="4.595" transform="translate(8.558 46.338)" fill="#ccf2ff"/>
    <circle id="Ellipse_1824" data-name="Ellipse 1824" cx="16.031" cy="16.031" r="16.031" transform="translate(27.287)" fill="#ffc101" stroke="#1d1d1d" stroke-linecap="round" stroke-width="1.5"/>
    <path id="Rectangle_6158" data-name="Rectangle 6158" d="M3,0H7.078a7,7,0,0,1,7,7v4.456a7,7,0,0,1-7,7H3a3,3,0,0,1-3-3V3A3,3,0,0,1,3,0Z" transform="translate(3.424 59.011)" fill="#ffc101" stroke="#1d1d1d" stroke-linecap="round" stroke-width="1.5"/>
    <path id="Rectangle_6159" data-name="Rectangle 6159" d="M3,0H7.078a7,7,0,0,1,7,7v4.456a7,7,0,0,1-7,7H3a3,3,0,0,1-3-3V3A3,3,0,0,1,3,0Z" transform="translate(83.503 77.467) rotate(-180)" fill="#ffc101" stroke="#1d1d1d" stroke-linecap="round" stroke-width="1.5"/>
    <path id="Path_70598" data-name="Path 70598" d="M530.645,110.964v-3.425a4.6,4.6,0,0,0-4.6-4.6H465.235a4.6,4.6,0,0,0-4.595,4.6v3.425" transform="translate(-452.082 -56.757)" fill="none" stroke="#1a1e23" stroke-linecap="round" stroke-linejoin="round" stroke-width="1.5"/>
    <path id="Path_70599" data-name="Path 70599" d="M460.64,138.122v3.531a4.6,4.6,0,0,0,4.595,4.6H526.05a4.6,4.6,0,0,0,4.6-4.6v-3.531" transform="translate(-452.082 -56.757)" fill="none" stroke="#1a1e23" stroke-linecap="round" stroke-linejoin="round" stroke-width="1.5"/>
    <path id="Path_70600" data-name="Path 70600" d="M514.795,99.695a6.645,6.645,0,0,0-6.45-5.063H482.611a6.646,6.646,0,0,0-6.451,5.063" transform="translate(-452.082 -56.757)" fill="none" stroke="#1d1d1d" stroke-linecap="round" stroke-width="1"/>
    <g id="icon_heart" data-name="icon heart" transform="translate(-452.082 -56.757)">
      <g id="Group_3608" data-name="Group 3608">
        <path id="Path_23441" data-name="Path 23441" d="M495.839,140.122c-.694,0-1.977,0-9.069-6.607-3.365-3.129-6.475-6.3-6.507-6.348a10.307,10.307,0,0,1-.167-14.575c.055-.056.111-.111.167-.166a10.755,10.755,0,0,1,15.018,0l.562.548.576-.526a10.756,10.756,0,0,1,15.022,0,10.307,10.307,0,0,1,.181,14.575c-.06.061-.12.121-.181.18,0,0-3.128,3.174-6.493,6.317C497.816,140.122,496.528,140.122,495.839,140.122Z" fill="#ffb1b1" stroke="#1a1e23" stroke-linecap="round" stroke-linejoin="round" stroke-width="1.5"/>
      </g>
    </g>
    <g id="Group_15397" data-name="Group 15397" transform="translate(-461.943 -48.757)">
      <path id="Path_70601" data-name="Path 70601" d="M279.489,139.111v-.133a3.112,3.112,0,0,0-3.112-3.112h0a2.7,2.7,0,0,0-2.7,2.725h0c-.084,4.353-.461,7.279-1.361,9.136h7.171" transform="translate(229.918 -26.372)" fill="none" stroke="#1a1e23" stroke-linecap="round" stroke-linejoin="round" stroke-width="1.5"/>
      <line id="Line_1513" data-name="Line 1513" x2="5.208" transform="translate(501.601 115.733)" fill="#fff" stroke="#1a1e23" stroke-linecap="round" stroke-linejoin="round" stroke-width="1.5"/>
    </g>
    <g id="Group_15398" data-name="Group 15398" transform="translate(0 38.457)">
      <line id="Line_756" data-name="Line 756" x1="2.636" y1="2.636" transform="translate(2.67 2.547)" fill="#fff" stroke="#1a1e23" stroke-linecap="round" stroke-linejoin="round" stroke-width="1"/>
      <line id="Line_757" data-name="Line 757" y1="3.498" transform="translate(9.199 0)" fill="#fff" stroke="#1a1e23" stroke-linecap="round" stroke-linejoin="round" stroke-width="1"/>
      <line id="Line_758" data-name="Line 758" x1="3.498" transform="translate(0 8.962)" fill="#fff" stroke="#1a1e23" stroke-linecap="round" stroke-linejoin="round" stroke-width="1"/>
    </g>
    <g id="icon_check-circle" data-name="icon check-circle" transform="translate(-518.301 -31.985)">
      <circle id="Ellipse_2" data-name="Ellipse 2" cx="12.672" cy="12.672" r="12.672" transform="translate(529.707 112.701)" fill="#b4ffe8" stroke="#1d1d1d" stroke-linecap="round" stroke-width="1.5"/>
      <g id="icon-check">
        <path id="Path_263" data-name="Path 263" d="M546.18,123.565l-4.706,5.448-2.9-2.336" fill="#b4ffe8" stroke="#1d1d1d" stroke-linecap="round" stroke-linejoin="round" stroke-width="1.5"/>
      </g>
    </g>
  </g>
</svg>
