<svg xmlns="http://www.w3.org/2000/svg" width="61.04" height="61.039" viewBox="0 0 61.04 61.039">
  <g id="loader-large" transform="translate(3.02 3.02)">
    <path id="Path_78562" data-name="Path 78562" d="M27.616,3.156A27.5,27.5,0,1,1,3.156,33.386,27.5,27.5,0,0,1,27.616,3.156" transform="translate(-3.001 -3.001)" fill="#102558"/>
    <path id="Path_78563" data-name="Path 78563" d="M27.616,3.156A27.5,27.5,0,1,1,3.156,33.386,27.5,27.5,0,0,1,27.616,3.156Z" transform="translate(-3.001 -3.001)" fill="none" stroke="#132655" stroke-width="6.003"/>
    <path id="Path_78564" data-name="Path 78564" d="M9.66,16.447a27.478,27.478,0,1,0,41.639,0" transform="translate(-3.001 -6.879)" fill="#006ba3"/>
    <path id="Path_78565" data-name="Path 78565" d="M9.66,16.447a27.478,27.478,0,1,0,41.639,0" transform="translate(-3.001 -6.879)" fill="none" stroke="#00ade9" stroke-linecap="round" stroke-linejoin="round" stroke-width="6"/>
    <g id="Group_17339" data-name="Group 17339" transform="translate(11.823 16.647)">
      <text id="_86" data-name="86" transform="translate(0 0)" fill="#fff" font-size="18" font-family="Montserrat-Bold, Montserrat" font-weight="700" letter-spacing="-0.025em"><tspan x="0" y="17">86</tspan></text>
      <text id="_" data-name="%" transform="translate(23.416 1.423)" fill="#fff" font-size="11" font-family="Montserrat-Bold, Montserrat" font-weight="700" letter-spacing="-0.025em"><tspan x="0" y="11">%</tspan></text>
    </g>
  </g>
</svg>
