<svg id="logo_100percent" xmlns="http://www.w3.org/2000/svg" xmlns:xlink="http://www.w3.org/1999/xlink" width="274.348" height="111.678" viewBox="0 0 274.348 111.678">
  <defs>
    <linearGradient id="linear-gradient" y1="0.5" x2="1" y2="0.5" gradientUnits="objectBoundingBox">
      <stop offset="0" stop-color="#ffce03"/>
      <stop offset="1" stop-color="#ffe680"/>
    </linearGradient>
  </defs>
  <path id="Path_70540" data-name="Path 70540" d="M380.5,179.356a10.552,10.552,0,0,1-10.559-10.543V82.024a10.559,10.559,0,0,1,21.118,0v86.788A10.551,10.551,0,0,1,380.5,179.356Z" transform="translate(-369.94 -69.874)" fill="url(#linear-gradient)"/>
  <path id="Path_70541" data-name="Path 70541" d="M447.608,180.061a55.839,55.839,0,1,1,55.922-55.839A55.944,55.944,0,0,1,447.608,180.061Zm0-90.591a34.752,34.752,0,1,0,34.8,34.752A34.818,34.818,0,0,0,447.608,89.47Z" transform="translate(-380.389 -68.383)" fill="url(#linear-gradient)"/>
  <path id="Path_70542" data-name="Path 70542" d="M566.218,180.061a55.839,55.839,0,1,1,55.922-55.839A55.944,55.944,0,0,1,566.218,180.061Zm0-90.591a34.752,34.752,0,1,0,34.8,34.752A34.817,34.817,0,0,0,566.218,89.47Z" transform="translate(-437.385 -68.383)" fill="url(#linear-gradient)"/>
  <path id="Path_70543" data-name="Path 70543" d="M763.157,135.218a18.374,18.374,0,1,1,18.4-18.374A18.409,18.409,0,0,1,763.157,135.218Zm0-28.207A9.833,9.833,0,1,0,773,116.844,9.852,9.852,0,0,0,763.157,107.011Z" transform="translate(-550.048 -82.864)" fill="url(#linear-gradient)"/>
  <path id="Path_70544" data-name="Path 70544" d="M845.619,223.751a18.374,18.374,0,1,1,18.4-18.374A18.409,18.409,0,0,1,845.619,223.751Zm0-28.207a9.833,9.833,0,1,0,9.848,9.833A9.851,9.851,0,0,0,845.619,195.544Z" transform="translate(-589.673 -125.474)" fill="url(#linear-gradient)"/>
  <path id="Path_70545" data-name="Path 70545" d="M761.788,180.816a4.272,4.272,0,0,1-3.305-6.979l57.841-70.443a4.274,4.274,0,0,1,6.615,5.415L765.1,179.253A4.272,4.272,0,0,1,761.788,180.816Z" transform="translate(-556.179 -84.482)" fill="url(#linear-gradient)"/>
</svg>
