<svg xmlns="http://www.w3.org/2000/svg" xmlns:xlink="http://www.w3.org/1999/xlink" width="53.164" height="22.122" viewBox="0 0 53.164 22.122">
  <defs>
    <clipPath id="clip-path">
      <rect id="Rectangle_5209" data-name="Rectangle 5209" width="53.164" height="22.122" transform="translate(0 0)" fill="none"/>
    </clipPath>
  </defs>
  <g id="logo_stripe" style="mix-blend-mode: luminosity;isolation: isolate">
    <g id="Group_4252" data-name="Group 4252" transform="translate(0 0)" clip-path="url(#clip-path)">
      <path id="Path_37614" data-name="Path 37614" d="M3.736,8.666c0-.576.473-.8,1.255-.8a8.237,8.237,0,0,1,3.662.945V5.343a9.739,9.739,0,0,0-3.662-.679C1.994,4.664,0,6.229,0,8.843c0,4.076,5.612,3.426,5.612,5.184,0,.679-.591.9-1.418.9A9.193,9.193,0,0,1,.162,13.746v3.515a10.237,10.237,0,0,0,4.032.842c3.072,0,5.184-1.521,5.184-4.164C9.363,9.537,3.736,10.32,3.736,8.666ZM13.719,1.71l-3.6.768L10.1,14.307a3.711,3.711,0,0,0,3.825,3.8,5.7,5.7,0,0,0,2.584-.487v-3c-.472.192-2.806.871-2.806-1.314V8.06H16.51V4.915H13.7Zm7.384,4.3-.236-1.093h-3.19V17.836h3.692V9.079a2.6,2.6,0,0,1,2.806-.768v-3.4A2.506,2.506,0,0,0,21.1,6.007Zm3.972-1.093h3.707V17.836H25.076Zm0-1.122,3.707-.8V0L25.076.78V3.792Zm11.416.871A4.171,4.171,0,0,0,33.6,5.816L33.4,4.9H30.156V22.119l3.692-.783.015-4.179a4.158,4.158,0,0,0,2.614.93c2.643,0,5.051-2.127,5.051-6.808C41.512,7,39.076,4.664,36.491,4.664Zm-.886,10.175a2.207,2.207,0,0,1-1.743-.694l-.015-5.479a2.2,2.2,0,0,1,1.757-.724c1.344,0,2.274,1.506,2.274,3.441C37.879,13.362,36.964,14.839,35.605,14.839Zm17.559-3.411c0-3.781-1.831-6.764-5.331-6.764S42.192,7.647,42.192,11.4c0,4.445,2.511,6.69,6.114,6.69a8.235,8.235,0,0,0,4.091-.96V14.174a7.841,7.841,0,0,1-3.618.812c-1.433,0-2.7-.5-2.865-2.245h7.221C53.135,12.55,53.164,11.782,53.164,11.427Zm-7.3-1.4c0-1.669,1.019-2.363,1.949-2.363.9,0,1.861.694,1.861,2.363Z" transform="translate(0 0.003)" fill="#6772e5"/>
    </g>
  </g>
</svg>
