<svg xmlns="http://www.w3.org/2000/svg" xmlns:xlink="http://www.w3.org/1999/xlink" width="86.586" height="21.178" viewBox="0 0 86.586 21.178">
  <defs>
    <clipPath id="clip-path">
      <rect id="Rectangle_5210" data-name="Rectangle 5210" width="86.586" height="21.178" fill="none"/>
    </clipPath>
  </defs>
  <g id="logo_paypal" style="mix-blend-mode: luminosity;isolation: isolate">
    <g id="Group_4253" data-name="Group 4253" clip-path="url(#clip-path)">
      <path id="Path_37615" data-name="Path 37615" d="M43.052,6.749H38.261a.666.666,0,0,0-.658.563L35.665,19.619a.4.4,0,0,0,.4.462h2.287a.666.666,0,0,0,.658-.564l.523-3.319a.665.665,0,0,1,.657-.564H41.7c3.156,0,4.978-1.53,5.454-4.562a3.7,3.7,0,0,0-.611-3.1,4.441,4.441,0,0,0-3.493-1.225m.553,4.495c-.262,1.722-1.576,1.722-2.846,1.722h-.723l.507-3.216a.4.4,0,0,1,.394-.338h.331c.865,0,1.681,0,2.1.494a1.6,1.6,0,0,1,.233,1.338" transform="translate(-10.676 -2.013)" fill="#3b529b"/>
      <path id="Path_37616" data-name="Path 37616" d="M62.017,12.983H59.722a.4.4,0,0,0-.394.338l-.1.643-.16-.233a3.263,3.263,0,0,0-2.71-.964,5.28,5.28,0,0,0-5.123,4.622,4.343,4.343,0,0,0,.855,3.531,3.587,3.587,0,0,0,2.89,1.169,4.387,4.387,0,0,0,3.176-1.316l-.1.639a.4.4,0,0,0,.394.463h2.067a.666.666,0,0,0,.658-.564l1.24-7.866a.4.4,0,0,0-.393-.462m-3.2,4.473a2.558,2.558,0,0,1-2.589,2.194,1.934,1.934,0,0,1-1.541-.62,1.956,1.956,0,0,1-.36-1.615A2.57,2.57,0,0,1,56.9,15.2a1.934,1.934,0,0,1,1.53.626,1.992,1.992,0,0,1,.388,1.626" transform="translate(-15.318 -3.808)" fill="#3b529b"/>
      <path id="Path_37617" data-name="Path 37617" d="M79.528,13.075H77.222a.668.668,0,0,0-.551.293l-3.18,4.692-1.348-4.509a.668.668,0,0,0-.639-.476H69.238a.4.4,0,0,0-.379.529L71.4,21.07l-2.388,3.376a.4.4,0,0,0,.326.632h2.3a.664.664,0,0,0,.547-.286L79.856,13.7a.4.4,0,0,0-.328-.628" transform="translate(-20.609 -3.899)" fill="#3b529b"/>
      <path id="Path_37618" data-name="Path 37618" d="M91.833,6.749H87.041a.666.666,0,0,0-.657.563L84.446,19.619a.4.4,0,0,0,.394.462H87.3a.466.466,0,0,0,.46-.394l.55-3.488a.665.665,0,0,1,.657-.564h1.516c3.157,0,4.978-1.53,5.454-4.562a3.7,3.7,0,0,0-.612-3.1,4.437,4.437,0,0,0-3.491-1.225m.553,4.495c-.261,1.722-1.575,1.722-2.846,1.722h-.722l.508-3.216a.4.4,0,0,1,.394-.338h.331c.865,0,1.681,0,2.1.494a1.6,1.6,0,0,1,.232,1.338" transform="translate(-25.28 -2.013)" fill="#179bd7"/>
      <path id="Path_37619" data-name="Path 37619" d="M110.8,12.983H108.5a.4.4,0,0,0-.394.338l-.1.643-.161-.233a3.261,3.261,0,0,0-2.709-.964,5.279,5.279,0,0,0-5.122,4.622,4.346,4.346,0,0,0,.854,3.531,3.589,3.589,0,0,0,2.89,1.169,4.387,4.387,0,0,0,3.176-1.316l-.1.639a.4.4,0,0,0,.4.463H109.3a.666.666,0,0,0,.657-.564l1.241-7.866a.4.4,0,0,0-.4-.462m-3.2,4.473a2.557,2.557,0,0,1-2.589,2.194,1.936,1.936,0,0,1-1.541-.62,1.961,1.961,0,0,1-.36-1.615,2.571,2.571,0,0,1,2.571-2.212,1.934,1.934,0,0,1,1.53.626,1.982,1.982,0,0,1,.388,1.626" transform="translate(-29.923 -3.808)" fill="#179bd7"/>
      <path id="Path_37620" data-name="Path 37620" d="M118.452,7.086l-1.967,12.532a.4.4,0,0,0,.394.462h1.977a.665.665,0,0,0,.658-.564L121.454,7.21a.4.4,0,0,0-.394-.462h-2.214a.4.4,0,0,0-.394.338" transform="translate(-34.873 -2.012)" fill="#179bd7"/>
      <path id="Path_37621" data-name="Path 37621" d="M18,7.667h0q-.029.188-.067.386c-.867,4.457-3.832,6-7.618,6H8.387a.937.937,0,0,0-.926.794l-.987,6.271-.28,1.778a.494.494,0,0,0,.487.571H10.1a.823.823,0,0,0,.813-.695l.034-.174.644-4.093.041-.225a.823.823,0,0,1,.813-.7h.511c3.313,0,5.907-1.347,6.665-5.246a4.473,4.473,0,0,0-.685-3.945A3.27,3.27,0,0,0,18,7.667" transform="translate(-1.853 -2.287)" fill="#179bd7"/>
      <path id="Path_37622" data-name="Path 37622" d="M17.638,7.019q-.2-.058-.409-.105t-.434-.082a10.691,10.691,0,0,0-1.7-.124H9.944a.822.822,0,0,0-.812.7l-1.1,6.952-.032.2a.937.937,0,0,1,.926-.794h1.928c3.787,0,6.752-1.54,7.618-6,.026-.132.048-.26.067-.386a4.616,4.616,0,0,0-.713-.3c-.063-.021-.128-.041-.194-.061" transform="translate(-2.397 -2)" fill="#2f3a74"/>
      <path id="Path_37623" data-name="Path 37623" d="M6.736,5.4a.822.822,0,0,1,.812-.7H12.7a10.691,10.691,0,0,1,1.7.124q.223.036.434.082t.409.105l.195.06a4.685,4.685,0,0,1,.713.3A4.214,4.214,0,0,0,15.257,1.6C14.277.479,12.508,0,10.244,0H3.673a.94.94,0,0,0-.928.8L.007,18.174a.565.565,0,0,0,.557.654H4.621L5.64,12.355Z" transform="translate(0 0)" fill="#3b529b"/>
    </g>
  </g>
</svg>
