<svg xmlns="http://www.w3.org/2000/svg" width="29.123" height="18" viewBox="0 0 29.123 18">
  <g id="symbol_maestro" style="mix-blend-mode: luminosity;isolation: isolate">
    <rect id="Rectangle_5922" data-name="Rectangle 5922" width="7.875" height="14.151" transform="translate(10.624 1.925)" fill="#ff5f00"/>
    <path id="Path_38055" data-name="Path 38055" d="M29.038,27a8.984,8.984,0,0,1,3.437-7.076,9,9,0,1,0,0,14.151A8.984,8.984,0,0,1,29.038,27" transform="translate(-17.914 -17.998)" fill="#eb001b"/>
    <path id="Path_38056" data-name="Path 38056" d="M90.723,27a9,9,0,0,1-14.561,7.076,9,9,0,0,0,0-14.151A9,9,0,0,1,90.723,27" transform="translate(-61.6 -17.998)" fill="#f79e1b"/>
    <path id="Path_38057" data-name="Path 38057" d="M130.431,75.26v-.29h.117v-.059h-.3v.059h.117v.29Zm.577,0v-.349h-.091l-.1.24-.1-.24h-.091v.349h.065V75l.1.227h.067l.1-.228v.264Z" transform="translate(-102.167 -60.684)" fill="#f79e1b"/>
  </g>
</svg>
